<svg width="22" height="22" viewBox="0 0 22 22" fill="none" xmlns="http://www.w3.org/2000/svg">
<path d="M17.3621 18.8717H4.64229C3.80013 18.8717 3.11749 18.189 3.11749 17.3469V4.62703C3.11749 3.78487 3.80018 3.10223 4.64229 3.10223H17.3621C18.2043 3.10223 18.8869 3.78492 18.8869 4.62703V17.3469C18.8869 18.189 18.2043 18.8717 17.3621 18.8717Z" stroke="black" stroke-width="0.703125" stroke-miterlimit="10" stroke-linecap="round" stroke-linejoin="round"/>
<path d="M6.23846 2.88961V0.557434" stroke="black" stroke-width="0.703125" stroke-miterlimit="10" stroke-linecap="round" stroke-linejoin="round"/>
<path d="M8.62036 2.88961V0.557442" stroke="black" stroke-width="0.703125" stroke-miterlimit="10" stroke-linecap="round" stroke-linejoin="round"/>
<path d="M11.0022 2.88961V0.557442" stroke="black" stroke-width="0.703125" stroke-miterlimit="10" stroke-linecap="round" stroke-linejoin="round"/>
<path d="M13.3841 2.88961V0.557442" stroke="black" stroke-width="0.703125" stroke-miterlimit="10" stroke-linecap="round" stroke-linejoin="round"/>
<path d="M15.766 2.88961V0.557442" stroke="black" stroke-width="0.703125" stroke-miterlimit="10" stroke-linecap="round" stroke-linejoin="round"/>
<path d="M6.23846 21.4165V19.0843" stroke="black" stroke-width="0.703125" stroke-miterlimit="10" stroke-linecap="round" stroke-linejoin="round"/>
<path d="M8.62036 21.4165V19.0843" stroke="black" stroke-width="0.703125" stroke-miterlimit="10" stroke-linecap="round" stroke-linejoin="round"/>
<path d="M11.0022 21.4165V19.0843" stroke="black" stroke-width="0.703125" stroke-miterlimit="10" stroke-linecap="round" stroke-linejoin="round"/>
<path d="M13.3841 21.4165V19.0843" stroke="black" stroke-width="0.703125" stroke-miterlimit="10" stroke-linecap="round" stroke-linejoin="round"/>
<path d="M15.766 21.4165V19.0843" stroke="black" stroke-width="0.703125" stroke-miterlimit="10" stroke-linecap="round" stroke-linejoin="round"/>
<path d="M2.90491 15.8038H0.572693" stroke="black" stroke-width="0.703125" stroke-miterlimit="10" stroke-linecap="round" stroke-linejoin="round"/>
<path d="M2.90491 13.3954H0.572693" stroke="black" stroke-width="0.703125" stroke-miterlimit="10" stroke-linecap="round" stroke-linejoin="round"/>
<path d="M2.90491 10.9869H0.572693" stroke="black" stroke-width="0.703125" stroke-miterlimit="10" stroke-linecap="round" stroke-linejoin="round"/>
<path d="M2.90491 8.57854H0.572693" stroke="black" stroke-width="0.703125" stroke-miterlimit="10" stroke-linecap="round" stroke-linejoin="round"/>
<path d="M2.90491 6.1701H0.572693" stroke="black" stroke-width="0.703125" stroke-miterlimit="10" stroke-linecap="round" stroke-linejoin="round"/>
<path d="M21.4317 15.8038H19.0995" stroke="black" stroke-width="0.703125" stroke-miterlimit="10" stroke-linecap="round" stroke-linejoin="round"/>
<path d="M21.4317 13.3954H19.0995" stroke="black" stroke-width="0.703125" stroke-miterlimit="10" stroke-linecap="round" stroke-linejoin="round"/>
<path d="M21.4317 10.9869H19.0995" stroke="black" stroke-width="0.703125" stroke-miterlimit="10" stroke-linecap="round" stroke-linejoin="round"/>
<path d="M21.4317 8.57854H19.0995" stroke="black" stroke-width="0.703125" stroke-miterlimit="10" stroke-linecap="round" stroke-linejoin="round"/>
<path d="M21.4317 6.1701H19.0995" stroke="black" stroke-width="0.703125" stroke-miterlimit="10" stroke-linecap="round" stroke-linejoin="round"/>
<path d="M14.8795 12.7913V9.18257C14.8795 8.80977 14.6867 8.46341 14.3699 8.26696L11.5699 6.53094C11.2222 6.31532 10.7823 6.31532 10.4346 6.53094L7.63463 8.26696C7.31775 8.46341 7.125 8.80972 7.125 9.18257V12.7913C7.125 13.1641 7.31775 13.5104 7.63463 13.7069L10.4346 15.4429C10.7823 15.6585 11.2222 15.6585 11.5699 15.4429L14.3699 13.7069C14.6867 13.5104 14.8795 13.1641 14.8795 12.7913Z" stroke="black" stroke-width="0.703125" stroke-miterlimit="10" stroke-linecap="round" stroke-linejoin="round"/>
<path d="M11.0022 12.7952C12.0065 12.7952 12.8207 11.981 12.8207 10.9767C12.8207 9.9724 12.0065 9.15824 11.0022 9.15824C9.99787 9.15824 9.18372 9.9724 9.18372 10.9767C9.18372 11.981 9.99787 12.7952 11.0022 12.7952Z" stroke="black" stroke-width="0.703125" stroke-miterlimit="10" stroke-linecap="round" stroke-linejoin="round"/>
</svg>
