<svg width="64" height="64" viewBox="0 0 64 64" fill="none" xmlns="http://www.w3.org/2000/svg">
<path d="M2.74452 43.4564C5.70041 51.2187 11.633 57.5192 19.1422 60.9634C19.1827 60.9869 19.2231 61.006 19.2686 61.0205C23.2331 62.8177 27.6275 63.8271 32.256 63.8271C36.111 63.8271 39.8054 63.1299 43.2235 61.8595C43.3095 61.8451 43.3894 61.8133 43.4651 61.764C51.1915 58.8189 57.4693 52.9251 60.9213 45.4628C60.988 45.3814 61.0301 45.2845 61.0508 45.177C62.8289 41.23 63.8271 36.859 63.8271 32.2566C63.8271 14.8483 49.6644 0.685547 32.256 0.685547C28.3614 0.685547 24.6315 1.39911 21.1839 2.69448C21.1776 2.69685 21.1716 2.69906 21.1655 2.70174C13.3562 5.642 7.01519 11.5924 3.55372 19.1319C3.53226 19.1694 3.51427 19.207 3.5007 19.2491C1.69769 23.2187 0.684937 27.6204 0.684937 32.2566C0.684937 36.1236 1.38714 39.8291 2.66531 43.2561C2.67983 43.3272 2.70602 43.3928 2.74452 43.4564ZM18.8147 59.3769C12.1086 56.0397 6.81163 50.2895 4.05962 43.2685L18.8147 28.4982V59.3769ZM32.256 62.5344C27.9364 62.5344 23.8289 61.6189 20.1074 59.9819V39.1124L41.9169 60.9447C38.8806 61.9701 35.6339 62.5344 32.256 62.5344ZM43.2566 60.457L28.5206 45.7055H59.3728C56.0331 52.4113 50.2804 57.7075 43.2566 60.457ZM62.5344 32.2566C62.5344 36.5791 61.6176 40.6894 59.9784 44.4128H39.1263L60.9388 22.5779C61.9679 25.6193 62.5344 28.8722 62.5344 32.2566ZM45.6967 5.13547C52.4012 8.47165 57.6973 14.2196 60.4499 21.2383L45.6967 36.0069V5.13547ZM37.3996 44.3124C37.37 44.3421 37.3556 44.3794 37.333 44.4128H27.3548C27.3177 44.4128 27.2857 44.428 27.2503 44.434L20.2078 37.3838C20.1781 37.3542 20.1409 37.3398 20.1074 37.3172V27.3636C20.1074 27.3166 20.0902 27.2751 20.0806 27.2309L27.1118 20.1926C27.1415 20.1629 27.1558 20.1257 27.1784 20.0923H37.156C37.1934 20.0923 37.2257 20.0771 37.2614 20.0711L44.3036 27.1206C44.3333 27.1503 44.3705 27.1646 44.404 27.1872V37.1408C44.404 37.1882 44.4212 37.2297 44.4308 37.274L37.3996 44.3124ZM32.256 1.97823C36.5753 1.97823 40.6828 2.89362 44.404 4.53047V25.3921L22.6003 3.566C25.6351 2.54189 28.8801 1.97823 32.256 1.97823ZM21.2603 4.0536L35.9911 18.7996H5.14306C8.48413 12.0956 14.237 6.80151 21.2603 4.0536ZM4.53727 20.0923H25.3852L3.57107 41.9286C2.54333 38.8891 1.97762 35.6386 1.97762 32.2566C1.97762 27.9311 2.89585 23.8179 4.53727 20.0923Z" fill="white"/>
</svg>
