<svg width="83" height="70" viewBox="0 0 83 70" fill="none" xmlns="http://www.w3.org/2000/svg">
<path d="M48.1212 54.8643C56.9493 54.8643 64.1059 47.7077 64.1059 38.8796C64.1059 30.0514 56.9493 22.8948 48.1212 22.8948C39.2931 22.8948 32.1365 30.0514 32.1365 38.8796C32.1365 47.7077 39.2931 54.8643 48.1212 54.8643Z" stroke="black" stroke-width="2.57812" stroke-miterlimit="10" stroke-linecap="round" stroke-linejoin="round"/>
<path d="M48.1212 59.8266C59.6899 59.8266 69.0683 50.4483 69.0683 38.8795C69.0683 27.3108 59.6899 17.9324 48.1212 17.9324C36.5524 17.9324 27.1741 27.3108 27.1741 38.8795C27.1741 50.4483 36.5524 59.8266 48.1212 59.8266Z" stroke="black" stroke-width="2.57812" stroke-miterlimit="10" stroke-linecap="round" stroke-linejoin="round"/>
<path d="M53.4145 29.7167C56.5751 31.5465 58.7012 34.9648 58.7012 38.8796C58.7012 43.3762 55.8961 47.2177 51.9402 48.7495" stroke="black" stroke-width="2.57812" stroke-miterlimit="10" stroke-linecap="round" stroke-linejoin="round"/>
<path d="M48.8567 49.4346C48.6136 49.4513 48.3684 49.4597 48.1212 49.4597" stroke="black" stroke-width="2.57812" stroke-miterlimit="10" stroke-linecap="round" stroke-linejoin="round"/>
<path d="M3.58449 14.9896L5.90325 13.3795C7.105 12.5449 8.53328 12.0977 9.99645 12.0977H25.4348C26.5643 12.0977 27.6588 11.7051 28.5309 10.987L34.0689 4.05994C35.1282 2.73513 36.6941 1.88074 38.3888 1.80717C38.4774 1.80339 38.566 1.80133 38.6549 1.80133H57.5065C57.5972 1.80133 57.6876 1.80339 57.7779 1.80735C59.4365 1.88074 60.9742 2.69835 62.0342 3.97606L68.0505 11.2282C68.9169 11.928 69.9972 12.3098 71.1111 12.3098H75.5431C77.1221 12.3098 78.6384 12.9278 79.7674 14.0318C80.93 15.1686 81.5855 16.7259 81.5855 18.352V59.9009C81.5855 61.4804 80.9669 62.9971 79.8624 64.1263L79.7837 64.2067C78.6469 65.3688 77.0901 66.0236 75.4645 66.0236H25.1276C23.4636 66.0236 21.8325 66.4868 20.4167 67.3613C19.001 68.2358 17.3699 68.699 15.7058 68.699H11.4955C9.09841 68.699 6.80113 67.7389 5.11692 66.0332L2.9666 63.8554C2.15792 63.0364 1.70435 61.9318 1.70435 60.7807V18.5841C1.70435 17.1503 2.4068 15.8074 3.58449 14.9896Z" stroke="black" stroke-width="2.57812" stroke-miterlimit="10" stroke-linecap="round" stroke-linejoin="round"/>
<path d="M24.5326 11.8268L24.5376 8.73633C24.5391 7.80769 23.8489 7.05402 22.997 7.05402H12.8901C12.0404 7.05402 11.351 7.80408 11.3496 8.73031L11.3446 11.8268" stroke="black" stroke-width="2.57812" stroke-miterlimit="10" stroke-linecap="round" stroke-linejoin="round"/>
<path d="M7.15723 19.3683H19.7163L23.6491 17.9323" stroke="black" stroke-width="2.57812" stroke-miterlimit="10" stroke-linecap="round" stroke-linejoin="round"/>
<path d="M37.6074 8.51508L40.4437 13.0246H55.7409L58.635 8.51508" stroke="black" stroke-width="2.57812" stroke-miterlimit="10" stroke-linecap="round" stroke-linejoin="round"/>
<path d="M19.8185 19.3683V60.6061" stroke="black" stroke-width="2.57812" stroke-miterlimit="10" stroke-linecap="round" stroke-linejoin="round"/>
</svg>
